HIERARCHY
ROOT root
{
	OFFSET	0	13.1	24.9
	CHANNELS 6  Xposition Yposition Zposition Xrotation Yrotation Zrotation
	JOINT spine_1
	{
		OFFSET	0	9.99999	0
		CHANNELS 3  Xrotation Yrotation Zrotation
		JOINT spine_2
		{
			OFFSET	0	112	-10
			CHANNELS 3  Xrotation Yrotation Zrotation
			JOINT spine_3
			{
				OFFSET	0	206.5	19.3
				CHANNELS 3  Xrotation Yrotation Zrotation
				JOINT spine_4
				{
					OFFSET	0	110.4	14.6
					CHANNELS 3  Xrotation Yrotation Zrotation
					JOINT neck_1
					{
						OFFSET	0	71.8	-50.3
						CHANNELS 3  Xrotation Yrotation Zrotation
						JOINT neck_2
						{
							OFFSET	0	86.2	-25.8
							CHANNELS 3  Xrotation Yrotation Zrotation
							JOINT head_ee
							{
								OFFSET	0	179.8	-8.7
								CHANNELS 3  Xrotation Yrotation Zrotation
								End Site
								{
									OFFSET	1	0	0
								}
							}
						}
					}
					JOINT left_clavicle
					{
						OFFSET	-43.2	22.4	-70.8
						CHANNELS 3  Xrotation Yrotation Zrotation
						JOINT left_shoulder
						{
							OFFSET	-93.9	-5.79999	48.7
							CHANNELS 3  Xrotation Yrotation Zrotation
							JOINT left_elbow
							{
								OFFSET	-291.4	-30.8	15.2
								CHANNELS 3  Xrotation Yrotation Zrotation
								JOINT left_lowarm_twist
								{
									OFFSET	-110.7	-3.89999	13.6
									CHANNELS 3  Xrotation Yrotation Zrotation
									JOINT left_hand
									{
										OFFSET	-110.7	-3.89999	13.6
										CHANNELS 3  Xrotation Yrotation Zrotation
										JOINT left_ee
										{
											OFFSET	-80.8	-5.10001	12.1
											CHANNELS 3  Xrotation Yrotation Zrotation
											End Site
											{
												OFFSET	1	0	0
											}
										}
									}
								}
							}
						}
					}
					JOINT right_clavicle
					{
						OFFSET	43.2	22.4	-70.8
						CHANNELS 3  Xrotation Yrotation Zrotation
						JOINT right_shoulder
						{
							OFFSET	93.9	-5.79999	48.7
							CHANNELS 3  Xrotation Yrotation Zrotation
							JOINT right_elbow
							{
								OFFSET	291.4	-30.8	15.2
								CHANNELS 3  Xrotation Yrotation Zrotation
								JOINT right_lowarm_twist
								{
									OFFSET	110.7	-3.89999	13.6
									CHANNELS 3  Xrotation Yrotation Zrotation
									JOINT right_hand
									{
										OFFSET	110.7	-3.89999	13.6
										CHANNELS 3  Xrotation Yrotation Zrotation
										JOINT right_ee
										{
											OFFSET	80.8	-5.10001	12.1
											CHANNELS 3  Xrotation Yrotation Zrotation
											End Site
											{
												OFFSET	1	0	0
											}
										}
									}
								}
							}
						}
					}
				}
			}
		}
	}
	JOINT left_hip
	{
		OFFSET	-82.8	-127.5	0.300001
		CHANNELS 3  Xrotation Yrotation Zrotation
		JOINT left_knee
		{
			OFFSET	-28.2	-396.7	2.2
			CHANNELS 3  Xrotation Yrotation Zrotation
			JOINT left_ankle
			{
				OFFSET	-11.7	-411.3	35.4
				CHANNELS 3  Xrotation Yrotation Zrotation
				JOINT left_toes
				{
					OFFSET	0	-60	-88.6
					CHANNELS 3  Xrotation Yrotation Zrotation
					JOINT left_foot_ee
					{
						OFFSET	-22.5	-16.5	-42.2
						CHANNELS 3  Xrotation Yrotation Zrotation
						End Site
						{
							OFFSET	1	0	0
						}
					}
				}
			}
		}
	}
	JOINT right_hip
	{
		OFFSET	82.8	-127.5	0.300001
		CHANNELS 3  Xrotation Yrotation Zrotation
		JOINT right_knee
		{
			OFFSET	28.2	-396.7	2.2
			CHANNELS 3  Xrotation Yrotation Zrotation
			JOINT right_ankle
			{
				OFFSET	11.7	-411.3	35.4
				CHANNELS 3  Xrotation Yrotation Zrotation
				JOINT right_toes
				{
					OFFSET	0	-60	-88.6
					CHANNELS 3  Xrotation Yrotation Zrotation
					JOINT right_foot_ee
					{
						OFFSET	22.5	-16.5	-42.2
						CHANNELS 3  Xrotation Yrotation Zrotation
						End Site
						{
							OFFSET	1	0	0
						}
					}
				}
			}
		}
	}
}
MOTION
Frames: 8
Frame Time: 0.02
3000.91439064 701.983 -1860.74346071 -19.3943737619 11.9542977369 14.9611376656 8.78788 -0.501017 -3.96709 8.7966 -0.24777 -3.99088 8.79715 -0.0153752 -3.99853 8.77543 -0.646176 -3.94608 -17.2116 1.37237 5.75375 -17.1189 -0.566913 5.89024 -0.0 0.0 -0.0 8.36702 7.73042 15.9992 -12.3038 6.87532 65.6995 1.52655 -37.0943 0.5122 11.8917 0.264855 -1.49325 2.41747 -6.67418 13.6093 -0.0 0.0 -0.0 7.91333 23.8558 -14.4463 -34.2211 14.7457 -67.0453 0.201366 5.69661 -0.0100186 -85.1581 8.47169 -5.18067 -0.30599 20.5256 10.7776 0.0 0.0 0.0 42.5171 4.99827 -8.31493 -26.5324 0.161186 4.03224 27.664 8.09748 -3.63487 30.2892 -0.0 -0.0 -0.0 0.0 -0.0 49.7779 -9.18234 -8.0671 -63.3266 2.56971 -8.88144 -20.2732 33.1944 -4.09524 35.9585 -0.0 -0.0 0.0 0.0 0.0 
2990.22525958 701.983 -1850.32960401 -19.6583152936 15.0527721806 16.0910345199 8.78788 -0.501017 -3.96709 8.7966 -0.24777 -3.99088 8.79715 -0.0153752 -3.99853 8.77543 -0.646176 -3.94608 -17.2116 1.37237 5.75375 -17.1189 -0.566913 5.89024 -0.0 0.0 -0.0 8.36702 7.73042 15.9992 -12.3038 6.87532 65.6995 1.52655 -37.0943 0.5122 11.8917 0.264855 -1.49325 2.41747 -6.67418 13.6093 -0.0 0.0 -0.0 7.91333 23.8558 -14.4463 -34.2211 14.7457 -67.0453 0.201366 5.69661 -0.0100186 -85.1581 8.47169 -5.18067 -0.30599 20.5256 10.7776 0.0 0.0 0.0 42.5171 4.99827 -8.31493 -26.5324 0.161186 4.03224 27.664 8.09748 -3.63487 30.2892 -0.0 -0.0 -0.0 0.0 -0.0 49.7779 -9.18234 -8.0671 -63.3266 2.56971 -8.88144 -20.2732 33.1944 -4.09524 35.9585 -0.0 -0.0 0.0 0.0 0.0 
2980.56407886 701.983 -1839.79713861 -19.9752443516 18.0148294812 17.2042996147 8.78788 -0.501017 -3.96709 8.7966 -0.24777 -3.99088 8.79715 -0.0153752 -3.99853 8.77543 -0.646176 -3.94608 -17.2116 1.37237 5.75375 -17.1189 -0.566913 5.89024 -0.0 0.0 -0.0 8.36702 7.73042 15.9992 -12.3038 6.87532 65.6995 1.52655 -37.0943 0.5122 11.8917 0.264855 -1.49325 2.41747 -6.67418 13.6093 -0.0 0.0 -0.0 7.91333 23.8558 -14.4463 -34.2211 14.7457 -67.0453 0.201366 5.69661 -0.0100186 -85.1581 8.47169 -5.18067 -0.30599 20.5256 10.7776 0.0 0.0 0.0 42.5171 4.99827 -8.31493 -26.5324 0.161186 4.03224 27.664 8.09748 -3.63487 30.2892 -0.0 -0.0 -0.0 0.0 -0.0 49.7779 -9.18234 -8.0671 -63.3266 2.56971 -8.88144 -20.2732 33.1944 -4.09524 35.9585 -0.0 -0.0 0.0 0.0 0.0 
2959.32378923 716.515 -1828.96133519 -20.4982669322 22.3922024076 18.4345315314 8.59778 -0.480208 -3.91345 8.60627 -0.230409 -3.93603 8.6063 0.011962 -3.94274 8.58513 -0.610391 -3.8953 -18.9419 1.76095 6.60894 -18.819 -0.089906 6.85327 -0.0 0.0 -0.0 8.43742 8.66697 16.0696 -15.1595 3.6588 62.2439 2.06016 -45.5771 0.865602 16.0198 0.283688 -2.02008 2.83219 -10.7928 14.6718 -0.0 0.0 -0.0 7.71146 25.3994 -13.851 -32.258 14.8058 -67.3898 0.213522 6.03802 -0.0112613 -85.0794 8.46185 -5.18262 1.22572 25.3834 2.78243 0.0 0.0 0.0 41.1282 6.73191 -8.73168 -26.9653 0.148286 4.09742 27.7025 2.95487 -3.64402 28.4619 -0.0 -0.0 -0.0 0.0 -0.0 52.7699 -9.69542 -7.63089 -59.7317 2.17108 -8.49582 -21.9092 30.3653 -4.24285 32.4977 -0.0 -0.0 0.0 0.0 0.0 
2909.7169401 716.387 -1838.71576395 -23.2660933373 27.9744206137 21.6372612875 8.76984 -0.790841 -4.42799 8.7806 -0.507763 -4.46923 8.79925 -0.248063 -4.49109 8.77238 -0.953544 -4.39589 -19.3869 7.69018 10.0991 -19.2126 9.59366 12.4748 -0.0 0.0 -0.0 9.13424 4.97863 17.6362 -16.6409 -0.796161 57.8898 2.72398 -53.4489 1.37167 25.7637 0.177745 -3.25869 2.8042 -23.7073 8.2748 -0.0 0.0 -0.0 7.42842 16.8434 -13.9437 -36.8919 18.6635 -63.5983 0.193478 5.47484 -0.0092509 -85.1131 8.46606 -5.18179 4.18448 28.1423 -14.9049 0.0 0.0 0.0 36.6664 6.38435 -8.21109 -25.324 0.194586 3.84979 35.4806 -2.42179 -4.48753 17.9176 -0.0 -0.0 -0.0 0.0 -0.0 61.1229 -1.89185 -11.1271 -48.1199 1.0624 -7.09511 -19.0169 28.9919 -3.6126 32.3535 -0.0 -0.0 0.0 0.0 0.0 
2882.43410601 706.674 -1841.89667271 -25.7964193157 28.3173649532 23.7779138494 9.65765 -0.850005 -4.75086 9.67004 -0.54633 -4.79518 9.6885 -0.342788 -4.81397 9.65786 -1.09792 -4.69988 -18.6174 8.91636 10.0266 -18.4985 11.8503 12.8043 -0.0 0.0 -0.0 9.28471 4.51844 17.9594 -14.3263 -1.87463 56.9962 2.79809 -54.1813 1.43149 26.9918 0.149492 -3.41302 2.30346 -24.2326 4.74194 -0.0 0.0 -0.0 5.65745 10.8845 -10.5118 -39.1447 20.4028 -62.0368 0.316231 8.9033 -0.0246195 -85.145 8.47005 -5.181 4.15569 28.3269 -14.6095 0.0 0.0 0.0 32.7298 7.68034 -5.50311 -15.6036 0.322085 2.3655 34.4642 0.853124 -4.36118 15.0966 -0.0 -0.0 -0.0 0.0 -0.0 62.2936 -2.28606 -13.3064 -43.6194 0.712938 -6.49738 -16.6927 28.0558 -3.12863 35.1704 -0.0 -0.0 0.0 0.0 0.0 
2866.73224993 707.548 -1853.6623587 -27.0848536427 30.3767587911 25.5959871519 10.0084 -0.847146 -4.73994 10.0207 -0.544168 -4.7841 10.0378 -0.370429 -4.80064 10.0074 -1.12312 -4.68236 -19.4909 9.0657 10.9335 -19.3298 11.8419 13.8132 -0.0 0.0 -0.0 9.42889 4.2815 18.2581 -13.0807 -2.77261 56.1858 2.80987 -54.2953 1.44104 26.4108 0.163271 -3.34008 1.79582 -22.613 2.1959 -0.0 0.0 -0.0 4.91536 6.82908 -9.19425 -38.2936 18.3927 -61.5944 0.392343 10.9988 -0.0377743 -84.7047 8.41499 -5.19174 4.03225 28.4235 -13.7518 0.0 0.0 0.0 29.167 5.62322 -3.38889 -3.15097 0.116851 0.469395 28.4068 6.57139 -3.71541 10.9445 -0.0 -0.0 -0.0 0.0 -0.0 65.8631 -3.69991 -14.612 -39.0104 0.405015 -5.85926 -17.9852 25.622 -3.27217 37.5823 -0.0 -0.0 0.0 0.0 0.0 
2865.81098358 707.548 -1852.10302634 -27.1620792111 30.6326495446 25.7481226073 10.0084 -0.847146 -4.73994 10.0207 -0.544168 -4.7841 10.0378 -0.370429 -4.80064 10.0074 -1.12312 -4.68236 -19.4909 9.0657 10.9335 -19.3298 11.8419 13.8132 -0.0 0.0 -0.0 9.42889 4.2815 18.2581 -13.0807 -2.77261 56.1858 2.80987 -54.2953 1.44104 26.4108 0.163271 -3.34008 1.79582 -22.613 2.1959 -0.0 0.0 -0.0 4.91536 6.82908 -9.19425 -38.2936 18.3927 -61.5944 0.392343 10.9988 -0.0377743 -84.7047 8.41499 -5.19174 4.03225 28.4235 -13.7518 0.0 0.0 0.0 29.167 5.62322 -3.38889 -3.15097 0.116851 0.469395 28.4068 6.57139 -3.71541 10.9445 -0.0 -0.0 -0.0 0.0 -0.0 65.8631 -3.69991 -14.612 -39.0104 0.405015 -5.85926 -17.9852 25.622 -3.27217 37.5823 -0.0 -0.0 0.0 0.0 0.0 
